<svg id="Capa_1" enable-background="new 0 0 512 512" height="512" viewBox="0 0 512 512" width="512" xmlns="http://www.w3.org/2000/svg"><g><path d="m468.373 241h-424.746c-1.585 6.7-12.627 34.637-12.627 75 0 80.44 42.685 153.757 109.523 193.862l3.563 2.138h223.828l3.563-2.138c66.816-40.091 109.523-113.396 109.523-193.862 0-41.113-11.016-68.191-12.627-75zm-22.689 30c2.918 12.256 4.625 24.691 5.136 37.152-8.65-.837-13.808-3.117-19.977-5.859-9.273-4.122-19.784-8.793-39.842-8.793s-30.569 4.671-39.842 8.793c-7.803 3.468-13.966 6.207-27.658 6.207s-19.855-2.739-27.658-6.207c-9.273-4.122-19.784-8.793-39.842-8.793s-30.569 4.671-39.842 8.793c-7.803 3.468-13.966 6.207-27.658 6.207s-19.855-2.739-27.658-6.207c-9.273-4.122-19.784-8.793-39.842-8.793s-30.569 4.671-39.842 8.793c-6.169 2.742-11.327 5.021-19.977 5.859.511-12.46 2.217-24.895 5.136-37.152zm-86.164 211h-207.04c-50.265-31.636-83.444-85.132-90.186-143.84 14.528-1.133 23.239-4.982 31.048-8.453 7.803-3.468 13.966-6.207 27.658-6.207s19.855 2.739 27.658 6.207c9.273 4.122 19.784 8.793 39.842 8.793s30.569-4.671 39.842-8.793c7.803-3.468 13.966-6.207 27.658-6.207s19.855 2.739 27.658 6.207c9.273 4.122 19.784 8.793 39.842 8.793s30.569-4.671 39.842-8.793c7.803-3.468 13.966-6.207 27.658-6.207s19.855 2.739 27.658 6.207c7.81 3.471 16.521 7.321 31.048 8.453-6.743 58.708-39.922 112.204-90.186 143.84z"/><path d="m121 361h30v30h-30z"/><path d="m296.09 367.558c-11.848-4.29-25.711-6.558-40.09-6.558-39.387 0-69.896 33.565-71.175 34.994l-8.96 10.006 8.96 10.006c1.279 1.429 31.788 34.994 71.175 34.994 14.379 0 28.242-2.268 40.09-6.558 14.8-5.36 30.588-5.899 45.668-1.554l19.242 5.524v-84.824l-19.255 5.528c-15.068 4.341-30.855 3.802-45.655-1.558zm34.91 42.875c-15.175-1.439-30.499.505-45.125 5.802-8.609 3.117-18.939 4.765-29.875 4.765-14.721 0-28.444-8.038-37.569-14.999 9.13-6.967 22.851-15.001 37.569-15.001 10.936 0 21.266 1.648 29.875 4.765 14.63 5.299 29.952 7.241 45.125 5.803z"/><path d="m91 121h30v30h-30z"/><path d="m121 181h30v30h-30z"/><path d="m151 91h30v30h-30z"/><path d="m250.026 30h-39.026v121h39.026c21.573 19.394 49.171 30 78.4 30h152.574v-181h-152.574c-29.229 0-56.827 10.606-78.4 30zm12.187 91h-21.213v-61h21.213c2.251-1.576 24.044-30 66.213-30h2.574v121h-2.574c-41.995 0-64.005-28.455-66.213-30zm188.787 30h-90v-121h90z"/><path d="m391 60h30v61h-30z"/></g></svg>