<?xml version="1.0" encoding="utf-8"?>
<!-- Generator: Adobe Illustrator 22.1.0, SVG Export Plug-In . SVG Version: 6.00 Build 0)  -->
<svg version="1.1" id="Layer_1" xmlns="http://www.w3.org/2000/svg" xmlns:xlink="http://www.w3.org/1999/xlink" x="0px" y="0px"
	 viewBox="0 0 450 450" style="enable-background:new 0 0 450 450;" xml:space="preserve">
<style type="text/css">
	.st0{stroke:#000000;stroke-width:10;stroke-miterlimit:10;}
</style>
<g transform="translate(0.000000,450.000000) scale(0.100000,-0.100000)">
	<path class="st0" d="M1294.5,3655.6c-171-190.7-425.8-281.1-751.3-266.4c-129.9,4.9-205.5,18.1-307.4,52.6
		c-148,49.4-185.8,46-185.8-14.7c0-52.6,41.1-79,197.2-128.2c106.8-32.9,156.2-37.8,361.7-36.2c213.7,0,253.2,4.9,371.5,44.3
		c136.4,44.3,279.5,128.2,389.7,225.2l62.5,54.3l69-65.7c93.7-92.1,208.8-157.8,365-212.1c121.7-42.7,149.6-46,378.1-46
		c223.6,0,259.7,4.9,379.7,44.3c136.4,44.3,279.5,128.2,389.7,225.2l62.5,54.3l69-65.7c93.7-92.1,208.8-157.8,365-212.1
		c121.7-42.7,149.6-46,378.1-46c223.6,0,258.1,4.9,381.4,44.3c146.3,49.4,195.6,92.1,167.6,146.3c-21.4,39.4-39.4,37.8-190.7-14.7
		c-98.6-32.9-171-44.3-309.1-51c-318.9-11.5-542.5,67.4-734.9,263c-59.2,60.8-120,111.8-133.1,111.8s-75.6-51-138-113.5
		c-60.8-60.8-151.3-131.5-200.5-156.2c-131.5-67.4-314-108.5-476.7-108.5c-299.2,1.6-517.9,83.9-697,266.4
		c-60.8,60.8-123.3,111.8-139.8,111.8C1403,3760.9,1347.1,3713.1,1294.5,3655.6z"/>
	<path class="st0" d="M1125.1,3049c-16.5-42.7,6.6-79,46-72.3c28,3.3,37.8,16.5,37.8,46c0,29.6-9.8,42.7-37.8,46
		C1149.8,3072,1130.1,3063.8,1125.1,3049z"/>
	<path class="st0" d="M2675.4,3026c-36.2-39.4-34.5-90.4,1.6-123.3s69-34.5,105.2-6.6c46,34.5,51,88.8,14.7,124.9
		C2754.4,3063.8,2709.9,3065.4,2675.4,3026z"/>
	<path class="st0" d="M1759.8,2989.8c-41.1-41.1-41.1-69,0-106.8c44.3-39.4,111.8-21.4,124.9,36.2c8.2,32.9,3.3,51-26.3,73.9
		C1812.3,3030.9,1800.8,3030.9,1759.8,2989.8z"/>
	<path class="st0" d="M4036.6,2935.6c-21.4-16.5-26.3-34.5-18.1-65.7c14.7-59.2,70.7-73.9,113.5-29.6c29.6,28,31.2,39.4,14.7,75.6
		C4125.4,2961.9,4084.2,2968.4,4036.6,2935.6z"/>
	<path class="st0" d="M3236,2899.4c-14.7-34.5-13.1-46,11.5-73.9c39.4-44.3,83.9-41.1,115.1,6.6c37.8,55.9,8.2,108.5-59.2,108.5
		C3267.2,2940.5,3250.8,2930.6,3236,2899.4z"/>
	<path class="st0" d="M2344.9,2716.9c-51-49.4-13.1-113.5,59.2-101.9c49.4,6.6,62.5,75.6,19.8,106.8
		C2386.1,2749.8,2376.2,2748.1,2344.9,2716.9z"/>
	<path class="st0" d="M411.7,2695.5c-11.5-24.7-9.8-39.4,9.8-59.2c31.2-29.6,54.3-26.3,79,11.5c11.5,19.8,9.8,34.5-4.9,52.6
		C465.9,2736.7,433.1,2733.4,411.7,2695.5z"/>
	<path class="st0" d="M875.3,2690.6c-11.5-11.5-19.8-39.4-19.8-62.5s8.2-51,19.8-62.5c11.5-11.5,39.4-19.8,62.5-19.8
		s51,8.2,62.5,19.8c11.5,11.5,19.8,39.4,19.8,62.5c0,54.3-28,82.2-82.2,82.2C914.7,2710.4,886.7,2702.2,875.3,2690.6z"/>
	<path class="st0" d="M1889.6,2552.5c-14.7-18.1-16.5-32.9-3.3-52.6c24.7-39.4,72.3-44.3,97-11.5
		C2029.3,2550.9,1938.9,2611.7,1889.6,2552.5z"/>
	<path class="st0" d="M3435,2519.7c-14.7-18.1-16.5-32.9-3.3-52.6c24.7-39.4,72.3-44.3,97-11.5
		C3574.7,2518,3484.2,2578.9,3435,2519.7z"/>
	<path class="st0" d="M3913.3,2471.9c-29.6-36.2-1.6-82.2,51-82.2c32.9,0,39.4,8.2,39.4,49.4c0,37.8-8.2,51-34.5,54.3
		C3951.1,2496.6,3924.8,2486.8,3913.3,2471.9z"/>
	<path class="st0" d="M1299.4,2333.9c-180.9-189-402.8-272.9-715.1-271.3c-157.8,1.6-200.5,8.2-335.4,54.3
		c-166,55.9-198.9,51-198.9-24.7c0-80.6,274.6-159.5,558.9-159.5c296,0,547.5,85.5,728.2,251.5l88.8,80.6l39.4-41.1
		c95.3-103.5,304.2-215.4,483.4-261.3c152.9-39.4,435.6-41.1,591.8-1.6c161.1,39.4,335.4,128.2,440.6,223.6l88.8,80.6l39.4-41.1
		c103.5-111.8,328.8-230.1,516.2-271.3c139.8-29.6,437.3-26.3,562.2,8.2c207.2,55.9,281.1,103.5,258.1,164.4
		c-16.5,42.7-57.6,42.7-169.3,3.3c-246.6-88.8-489.9-93.7-723.3-16.5c-185.8,62.5-304.2,143.1-424.2,290.9
		c-21.4,24.7-47.7,44.3-60.8,44.3c-13.1,0-54.3-36.2-92.1-82.2c-92.1-110.2-240-203.9-399.5-256.4c-187.4-60.8-455.4-64.1-636.3-8.2
		c-195.6,59.2-332.1,151.3-455.4,302.5c-21.4,24.7-47.7,44.3-57.6,44.3C1416.1,2447.3,1358.6,2396.4,1299.4,2333.9z"/>
	<path class="st0" d="M3280.4,1779.9c-32.9-34.5-26.3-70.7,18.1-100.3c31.2-19.8,39.4-18.1,73.9,9.8c34.5,26.3,36.2,36.2,18.1,73.9
		C3369.1,1812.7,3319.9,1819.3,3280.4,1779.9z"/>
	<path class="st0" d="M1069.2,1740.4c-23-42.7-8.2-93.7,34.5-116.7c70.7-37.8,151.3,72.3,93.7,129.9
		C1164.6,1786.4,1089,1778.2,1069.2,1740.4z"/>
	<path class="st0" d="M1955.4,1673c-13.1-26.3-13.1-46,0-73.9c24.7-55.9,110.2-55.9,134.8,0c26.3,57.6-4.9,108.5-67.4,108.5
		C1989.9,1707.6,1968.5,1696,1955.4,1673z"/>
	<path class="st0" d="M2723.1,1638.4c-32.9-46-6.6-95.3,47.7-95.3s80.6,49.4,47.7,95.3c-13.1,19.8-34.5,36.2-47.7,36.2
		C2757.6,1674.6,2736.2,1658.2,2723.1,1638.4z"/>
	<path class="st0" d="M403.5,1599c-37.8-37.8-24.7-108.5,23-133.1c52.6-24.7,95.3-3.3,110.2,55.9c8.2,32.9,3.3,51-26.3,73.9
		C465.9,1631.9,438,1633.5,403.5,1599z"/>
	<path class="st0" d="M1467.1,1490.6c-42.7-42.7-11.5-128.2,46-128.2c31.2,0,82.2,49.4,82.2,79
		C1595.3,1493.8,1506.5,1530,1467.1,1490.6z"/>
	<path class="st0" d="M3793.3,1393.5c-31.2-42.7-16.5-95.3,31.2-116.7c72.3-32.9,141.4,75.6,85.5,131.5
		C3878.8,1439.6,3819.6,1431.4,3793.3,1393.5z"/>
	<path class="st0" d="M3208,1372.2c-14.7-18.1-16.5-32.9-1.6-59.2c34.5-64.1,136.4-11.5,110.2,55.9
		C3303.4,1401.8,3234.4,1403.4,3208,1372.2z"/>
	<path class="st0" d="M880.2,1263.6c-39.4-44.3-21.4-111.8,36.2-124.9c54.3-14.7,93.7,9.8,100.3,62.5
		C1026.5,1283.4,936.1,1326.1,880.2,1263.6z"/>
	<path class="st0" d="M2427.2,1237.3c-36.2-36.2-32.9-82.2,8.2-111.8c36.2-24.7,79-18.1,100.3,13.1c23,34.5,13.1,90.4-18.1,108.5
		C2473.3,1270.2,2456.8,1268.5,2427.2,1237.3z"/>
	<path class="st0" d="M1897.8,1158.5c-18.1-47.7,1.6-83.9,46-88.8c36.2-4.9,47.7,3.3,55.9,36.2c4.9,23,4.9,49.4-1.6,57.6
		C1983.3,1189.7,1907.6,1184.8,1897.8,1158.5z"/>
	<path class="st0" d="M1304.4,1017C1112,813.1,872,726.1,544.9,740.8c-131.5,6.6-207.2,19.8-309.1,54.3C87.8,844.5,50,841.2,50,782
		c0-54.3,19.8-67.4,172.7-121.7C344.3,619.3,372.2,616,600.7,616c223.6,0,259.7,4.9,379.7,44.3c134.8,44.3,279.5,128.2,389.7,225.2
		l60.8,52.6l79-72.3c175.9-164.4,386.3-241.7,685.5-254.8c167.6-8.2,220.3-3.3,337,26.3c175.9,44.3,309.1,108.5,442.2,215.4
		l103.5,85.5l69-65.7c92.1-90.4,207.2-156.2,363.3-210.5c121.7-42.7,151.3-46,378.1-46c225.2,0,258.1,3.3,381.4,44.3
		c146.3,49.4,195.6,92.1,167.6,146.3c-21.4,39.4-39.4,37.8-190.7-14.7c-98.6-32.9-171-44.3-309.1-51
		c-320.5-11.5-545.8,67.4-734.9,261.3c-59.2,62.5-120,113.5-133.1,113.5s-75.6-51-138-113.5C2751,821.5,2534,737.7,2246.3,737.7
		c-296,0-507.9,83.9-697,274.6c-65.7,65.7-123.3,120-126.6,120C1417.8,1132.1,1365.2,1079.5,1304.4,1017z"/>
</g>
</svg>
