<?xml version="1.0" standalone="no"?>
<!DOCTYPE svg PUBLIC "-//W3C//DTD SVG 20010904//EN"
 "http://www.w3.org/TR/2001/REC-SVG-20010904/DTD/svg10.dtd">
<svg version="1.0" xmlns="http://www.w3.org/2000/svg"
 width="450.000000pt" height="450.000000pt" viewBox="0 0 450.000000 450.000000"
 preserveAspectRatio="xMidYMid meet">

<g transform="translate(0.000000,450.000000) scale(0.100000,-0.100000)"
fill="#000000" stroke="none">
<path d="M1637 3175 c-104 -116 -259 -171 -457 -162 -79 3 -125 11 -187 32
-90 30 -113 28 -113 -9 0 -32 25 -48 120 -78 65 -20 95 -23 220 -22 130 0 154
3 226 27 83 27 170 78 237 137 l38 33 42 -40 c57 -56 127 -96 222 -129 74 -26
91 -28 230 -28 136 0 158 3 231 27 83 27 170 78 237 137 l38 33 42 -40 c57
-56 127 -96 222 -129 74 -26 91 -28 230 -28 136 0 157 3 232 27 89 30 119 56
102 89 -13 24 -24 23 -116 -9 -60 -20 -104 -27 -188 -31 -194 -7 -330 41 -447
160 -36 37 -73 68 -81 68 -8 0 -46 -31 -84 -69 -37 -37 -92 -80 -122 -95 -80
-41 -191 -66 -290 -66 -182 1 -315 51 -424 162 -37 37 -75 68 -85 68 -9 -1
-43 -30 -75 -65z"/>
<path d="M1534 2806 c-10 -26 4 -48 28 -44 17 2 23 10 23 28 0 18 -6 26 -23
28 -13 2 -25 -3 -28 -12z"/>
<path d="M2477 2792 c-22 -24 -21 -55 1 -75 22 -20 42 -21 64 -4 28 21 31 54
9 76 -26 26 -53 27 -74 3z"/>
<path d="M1920 2770 c-25 -25 -25 -42 0 -65 27 -24 68 -13 76 22 5 20 2 31
-16 45 -28 23 -35 23 -60 -2z"/>
<path d="M3305 2737 c-13 -10 -16 -21 -11 -40 9 -36 43 -45 69 -18 18 17 19
24 9 46 -13 28 -38 32 -67 12z"/>
<path d="M2818 2715 c-9 -21 -8 -28 7 -45 24 -27 51 -25 70 4 23 34 5 66 -36
66 -22 0 -32 -6 -41 -25z"/>
<path d="M2276 2604 c-31 -30 -8 -69 36 -62 30 4 38 46 12 65 -23 17 -29 16
-48 -3z"/>
<path d="M1100 2591 c-7 -15 -6 -24 6 -36 19 -18 33 -16 48 7 7 12 6 21 -3 32
-18 22 -38 20 -51 -3z"/>
<path d="M1382 2588 c-7 -7 -12 -24 -12 -38 0 -14 5 -31 12 -38 7 -7 24 -12
38 -12 14 0 31 5 38 12 7 7 12 24 12 38 0 33 -17 50 -50 50 -14 0 -31 -5 -38
-12z"/>
<path d="M1999 2504 c-9 -11 -10 -20 -2 -32 15 -24 44 -27 59 -7 28 38 -27 75
-57 39z"/>
<path d="M2939 2484 c-9 -11 -10 -20 -2 -32 15 -24 44 -27 59 -7 28 38 -27 75
-57 39z"/>
<path d="M3230 2455 c-18 -22 -1 -50 31 -50 20 0 24 5 24 30 0 23 -5 31 -21
33 -11 2 -27 -4 -34 -13z"/>
<path d="M1640 2371 c-110 -115 -245 -166 -435 -165 -96 1 -122 5 -204 33
-101 34 -121 31 -121 -15 0 -49 167 -97 340 -97 180 0 333 52 443 153 l54 49
24 -25 c58 -63 185 -131 294 -159 93 -24 265 -25 360 -1 98 24 204 78 268 136
l54 49 24 -25 c63 -68 200 -140 314 -165 85 -18 266 -16 342 5 126 34 171 63
157 100 -10 26 -35 26 -103 2 -150 -54 -298 -57 -440 -10 -113 38 -185 87
-258 177 -13 15 -29 27 -37 27 -8 0 -33 -22 -56 -50 -56 -67 -146 -124 -243
-156 -114 -37 -277 -39 -387 -5 -119 36 -202 92 -277 184 -13 15 -29 27 -35
27 -7 0 -42 -31 -78 -69z"/>
<path d="M2845 2034 c-20 -21 -16 -43 11 -61 19 -12 24 -11 45 6 21 16 22 22
11 45 -13 30 -43 34 -67 10z"/>
<path d="M1500 2010 c-14 -26 -5 -57 21 -71 43 -23 92 44 57 79 -20 20 -66 15
-78 -8z"/>
<path d="M2039 1969 c-8 -16 -8 -28 0 -45 15 -34 67 -34 82 0 16 35 -3 66 -41
66 -20 0 -33 -7 -41 -21z"/>
<path d="M2506 1948 c-20 -28 -4 -58 29 -58 33 0 49 30 29 58 -8 12 -21 22
-29 22 -8 0 -21 -10 -29 -22z"/>
<path d="M1095 1924 c-23 -23 -15 -66 14 -81 32 -15 58 -2 67 34 5 20 2 31
-16 45 -27 22 -44 23 -65 2z"/>
<path d="M1742 1858 c-26 -26 -7 -78 28 -78 19 0 50 30 50 48 0 32 -54 54 -78
30z"/>
<path d="M3157 1799 c-19 -26 -10 -58 19 -71 44 -20 86 46 52 80 -19 19 -55
14 -71 -9z"/>
<path d="M2801 1786 c-9 -11 -10 -20 -1 -36 21 -39 83 -7 67 34 -8 20 -50 21
-66 2z"/>
<path d="M1385 1720 c-24 -27 -13 -68 22 -76 33 -9 57 6 61 38 6 50 -49 76
-83 38z"/>
<path d="M2326 1704 c-22 -22 -20 -50 5 -68 22 -15 48 -11 61 8 14 21 8 55
-11 66 -27 14 -37 13 -55 -6z"/>
<path d="M2004 1656 c-11 -29 1 -51 28 -54 22 -3 29 2 34 22 3 14 3 30 -1 35
-9 16 -55 13 -61 -3z"/>
<path d="M1643 1570 c-117 -124 -263 -177 -462 -168 -80 4 -126 12 -188 33
-90 30 -113 28 -113 -8 0 -33 12 -41 105 -74 74 -25 91 -27 230 -27 136 0 158
3 231 27 82 27 170 78 237 137 l37 32 48 -44 c107 -100 235 -147 417 -155 102
-5 134 -2 205 16 107 27 188 66 269 131 l63 52 42 -40 c56 -55 126 -95 221
-128 74 -26 92 -28 230 -28 137 0 157 2 232 27 89 30 119 56 102 89 -13 24
-24 23 -116 -9 -60 -20 -104 -27 -188 -31 -195 -7 -332 41 -447 159 -36 38
-73 69 -81 69 -8 0 -46 -31 -84 -69 -110 -110 -242 -161 -417 -161 -180 0
-309 51 -424 167 -40 40 -75 73 -77 73 -3 0 -35 -32 -72 -70z"/>
</g>
</svg>
